<!--?xml version="1.0" encoding="UTF-8" standalone="no" ?-->

<svg xmlns="http://www.w3.org/2000/svg" xmlns:xlink="http://www.w3.org/1999/xlink" version="1.1" width="700" height="700" viewBox="-350 -350 700 700" xml:space="preserve">
<desc>Created by Logonomy.ir</desc>
<defs>
</defs>


<g transform="matrix(3.97 0 0 3.97 -2 2)" id="62761221-bbe5-4db8-ad50-0f7b9d2dced5">
<g style="" vector-effect="non-scaling-stroke">
		<g transform="matrix(1 0 0 1 -5.05 -35.4)" id="Layer_1">
<polygon style="stroke: none; stroke-width: 1; stroke-dasharray: none; stroke-linecap: butt; stroke-dashoffset: 0; stroke-linejoin: miter; stroke-miterlimit: 4; fill: rgb(37,99,235); fill-rule: nonzero; opacity: 1;" points="7.25,4.2 7.25,-27.8 7.15,-27.8 7.15,-28 -45.15,-28 -45.15,-27.8 -45.25,-27.8 -45.25,28 -32.45,28 -32.45,-15.2 -5.55,-15.2 -5.55,16.8 -5.35,16.8 -5.35,17 45.25,17 45.25,4.2 "></polygon>
</g>
		<g transform="matrix(1 0 0 1 36 -5.85)" id="Layer_1">
<polygon style="stroke: none; stroke-width: 1; stroke-dasharray: none; stroke-linecap: butt; stroke-dashoffset: 0; stroke-linejoin: miter; stroke-miterlimit: 4; fill: rgb(37,99,235); fill-rule: nonzero; opacity: 1;" points="-4.2,7.35 27.8,7.35 27.8,7.15 28,7.15 28,-45.05 27.8,-45.05 27.8,-45.25 -28,-45.25 -28,-32.45 15.2,-32.45 15.2,-5.45 -16.8,-5.45 -16.8,-5.35 -17,-5.35 -17,45.25 -4.2,45.25 "></polygon>
</g>
		<g transform="matrix(1 0 0 1 6.45 35.6)" id="Layer_1">
<polygon style="stroke: none; stroke-width: 1; stroke-dasharray: none; stroke-linecap: butt; stroke-dashoffset: 0; stroke-linejoin: miter; stroke-miterlimit: 4; fill: rgb(37,99,235); fill-rule: nonzero; opacity: 1;" points="-7.35,-4.2 -7.35,27.8 -7.15,27.8 -7.15,28 45.05,28 45.05,27.8 45.25,27.8 45.25,-28 32.45,-28 32.45,15.2 5.45,15.2 5.45,-16.9 5.35,-16.9 5.35,-17 -45.25,-17 -45.25,-4.2 "></polygon>
</g>
		<g transform="matrix(1 0 0 1 -35 4.65)" id="Layer_1">
<polygon style="stroke: none; stroke-width: 1; stroke-dasharray: none; stroke-linecap: butt; stroke-dashoffset: 0; stroke-linejoin: miter; stroke-miterlimit: 4; fill: rgb(37,99,235); fill-rule: nonzero; opacity: 1;" points="4.2,-7.25 -27.8,-7.25 -27.8,-7.15 -28,-7.15 -28,45.15 -27.8,45.15 -27.8,45.25 28,45.25 28,32.45 -15.1,32.45 -15.1,5.55 16.9,5.55 16.9,5.35 17,5.35 17,-45.25 4.2,-45.25 "></polygon>
</g>
</g>
</g>
</svg>